HIERARCHY
ROOT Hips
{
	OFFSET -3.958830 18.904000 13.208200
	CHANNELS 6 Xposition Yposition Zposition Zrotation Yrotation Xrotation 
	JOINT LHipJoint
	{
		OFFSET 0.000000 0.000000 0.000000
		CHANNELS 3 Zrotation Yrotation Xrotation
		JOINT LeftUpLeg
		{
			OFFSET 1.800000 -1.400000 0.085000
			CHANNELS 3 Zrotation Yrotation Xrotation
			JOINT LeftLeg
			{
				OFFSET 2.215000 -6.000000 0.000000
				CHANNELS 3 Zrotation Yrotation Xrotation
				JOINT LeftFoot
				{
					OFFSET 2.500000 -6.900000 0.000000
					CHANNELS 3 Zrotation Yrotation Xrotation
					JOINT LeftToeBase
					{
						OFFSET 0.200000 -0.500000 1.950000
						CHANNELS 3 Zrotation Yrotation Xrotation
						End Site
						{
							OFFSET 0.000000 0.000000 0.000000
						}
					}
				}
			}
		}
	}
	JOINT RHipJoint
	{
		OFFSET 0.000000 0.000000 0.000000
		CHANNELS 3 Zrotation Yrotation Xrotation
		JOINT RightUpLeg
		{
			OFFSET -1.800000 -1.400000 0.085000
			CHANNELS 3 Zrotation Yrotation Xrotation
			JOINT RightLeg
			{
				OFFSET -2.215000 -6.000000 0.000000
				CHANNELS 3 Zrotation Yrotation Xrotation
				JOINT RightFoot
				{
					OFFSET -2.500000 -6.900000 0.000000
					CHANNELS 3 Zrotation Yrotation Xrotation
					JOINT RightToeBase
					{
						OFFSET -0.200000 -0.500000 1.950000
						CHANNELS 3 Zrotation Yrotation Xrotation
						End Site
						{
							OFFSET 0.000000 0.000000 0.000000
						}
					}
				}
			}
		}
	}
	JOINT LowerBack
	{
		OFFSET 0.000000 0.000000 0.000000
		CHANNELS 3 Zrotation Yrotation Xrotation
		JOINT Spine
		{
			OFFSET -0.087000 1.940000 -0.288900
			CHANNELS 3 Zrotation Yrotation Xrotation
			JOINT Spine1
			{
				OFFSET 0.000000 1.950000 0.060000
				CHANNELS 3 Zrotation Yrotation Xrotation
				JOINT Neck
				{
					OFFSET 0.000000 0.000000 0.000000
					CHANNELS 3 Zrotation Yrotation Xrotation
					JOINT Neck1
					{
						OFFSET 0.000000 1.600000 0.340000
						CHANNELS 3 Zrotation Yrotation Xrotation
						JOINT Head
						{
							OFFSET 0.000000 1.667000 -0.240000
							CHANNELS 3 Zrotation Yrotation Xrotation
							End Site
							{
								OFFSET 0.000000 0.000000 0.000000
							}
						}
					}
				}
				JOINT LeftShoulder
				{
					OFFSET 0.000000 0.000000 0.000000
					CHANNELS 3 Zrotation Yrotation Xrotation
					JOINT LeftArm
					{
						OFFSET 2.700000 1.550000 -0.730000
						CHANNELS 3 Zrotation Yrotation Xrotation
						JOINT LeftForeArm
						{
							OFFSET 5.450000 0.000000 0.000000
							CHANNELS 3 Zrotation Yrotation Xrotation
							JOINT LeftHand
							{
								OFFSET 3.450000 0.000000 0.000000
								CHANNELS 3 Zrotation Yrotation Xrotation
								JOINT LeftHandIndex1
								{
									OFFSET 0.750000 0.000000 0.000000
									CHANNELS 3 Zrotation Yrotation Xrotation
									End Site
									{
										OFFSET 0.000000 0.000000 0.000000
									}
								}
							}
						}
					}
				}
				JOINT RightShoulder
				{
					OFFSET 0.000000 0.000000 0.000000
					CHANNELS 3 Zrotation Yrotation Xrotation
					JOINT RightArm
					{
						OFFSET -2.700000 1.550000 -0.730000
						CHANNELS 3 Zrotation Yrotation Xrotation
						JOINT RightForeArm
						{
							OFFSET -5.450000 0.000000 0.000000
							CHANNELS 3 Zrotation Yrotation Xrotation
							JOINT RightHand
							{
								OFFSET -3.450000 0.000000 0.000000
								CHANNELS 3 Zrotation Yrotation Xrotation
								JOINT RightHandIndex1
								{
									OFFSET -0.750000 0.000000 0.000000
									CHANNELS 3 Zrotation Yrotation Xrotation
									End Site
									{
										OFFSET 0.000000 0.000000 0.000000
									}
								}
							}
						}
					}
				}
			}
		}
	}
}
MOTION
Frames: 8
Frame Time: 0.016667
0.171080 17.470380 -0.918170 -2.438436 4.846385 5.544063 -15.327616 13.073338 3.115098 -0.958291 0.284560 -4.391884 -7.606792 4.719144 3.267173 0.212295 3.812912 3.332020 -0.337310 -0.577060 -0.180470 18.189370 -10.415466 3.197132 2.580178 2.617844 -19.851473 8.152039 -3.615170 6.290054 0.062006 -2.234489 3.537938 -0.440940 0.295560 0.272460 -3.296630 -1.666741 -7.650888 5.550449 -1.649102 4.787998 1.390316 -1.937158 3.312801 2.778568 3.198417 -13.392400 4.304033 -0.945071 74.611980 -0.473740 2.645360 24.437360 -23.094477 -12.688799 7.308622 -63.018313 1.056100 -7.041782 -7.513045 -14.388639 -0.775662 -3.885727 2.841628 0.226750 0.173590 0.040070 0.020470 18.866440 10.857957 6.684923 63.653079 -2.232894 -11.347623 2.167918 17.905583 -0.817734 2.677997 -1.081293 -0.068090 -0.072230 0.220920 0.036890 
0.169670 17.470180 -0.920410 -2.533336 4.964042 5.500070 -15.320428 13.076316 3.108126 -0.849500 0.259567 -4.471370 -7.530597 4.709704 3.356396 0.206987 3.795782 3.330484 -0.324430 -0.559650 -0.170330 18.193325 -10.423233 3.205277 2.615070 2.637577 -19.842675 8.292220 -3.651696 6.403368 0.052941 -2.241713 3.531120 -0.432940 0.282840 0.275240 -3.314906 -1.652605 -7.657667 5.713310 -1.593982 4.887368 1.356063 -1.871271 3.289594 2.802612 3.301496 -13.429874 4.570507 -1.123771 74.771568 -0.426500 2.665510 24.082270 -23.121994 -12.856257 7.318142 -62.891444 0.931688 -6.923807 -7.538623 -14.091672 -0.764008 -3.881945 2.845554 0.230260 0.167660 0.050250 0.019480 18.827382 10.959093 6.702718 63.801844 -2.255145 -11.215031 1.955791 17.229369 -0.800955 2.683996 -1.081212 -0.060880 -0.076090 0.214640 0.034680 
0.166910 17.469470 -0.919860 -2.628255 5.023496 5.460309 -15.320237 13.066601 3.100231 -0.705932 0.251062 -4.433641 -7.599992 4.711553 3.295811 0.205982 3.796386 3.320961 -0.306430 -0.536870 -0.156620 18.197264 -10.415747 3.205781 2.666778 2.625893 -19.704634 8.416443 -3.657922 6.259491 0.040488 -2.248838 3.525391 -0.422580 0.266590 0.279510 -3.320596 -1.646725 -7.646275 5.731876 -1.636748 4.854940 1.245614 -1.926943 3.422440 2.851859 3.396573 -13.382741 4.881266 -1.245064 74.966038 -0.394760 2.765150 23.620250 -22.840568 -12.606391 7.274015 -62.921337 0.832046 -6.984178 -7.850822 -14.594113 -0.744900 -3.873755 2.852742 0.234360 0.160840 0.062070 0.017920 18.454041 10.606024 6.615964 64.203729 -2.064074 -11.528232 2.134453 18.463788 -0.878283 2.668121 -1.086633 -0.050720 -0.081640 0.207390 0.031020 
0.167770 17.466760 -0.917090 -2.748319 5.074624 5.462820 -15.306408 13.056263 3.087474 -0.602974 0.241218 -4.450147 -7.604217 4.723153 3.340302 0.213236 3.806861 3.326283 -0.321960 -0.559350 -0.164300 18.213188 -10.418438 3.210634 2.750665 2.623637 -19.634645 8.393936 -3.637199 6.083763 0.045786 -2.256654 3.524640 -0.435550 0.277390 0.281930 -3.364585 -1.619256 -7.637718 6.060315 -1.625547 4.731418 1.100594 -1.917513 3.503131 2.889740 3.404961 -13.386093 4.851773 -1.341730 74.739441 -0.764810 2.799560 24.206990 -22.800563 -12.585211 7.267467 -62.876854 0.754150 -6.947289 -8.335141 -14.693673 -0.689292 -3.879233 2.856790 0.227040 0.169120 0.053180 0.019020 18.291678 10.543341 6.692350 64.388688 -2.185808 -11.832250 2.321577 19.349593 -0.918500 2.663263 -1.094661 -0.054660 -0.085350 0.210790 0.034170 
0.165040 17.470410 -0.913530 -2.574599 5.089484 5.518738 -15.317859 13.060746 3.084104 -0.782673 0.241771 -4.550369 -7.508380 4.722818 3.481122 0.233759 3.791126 3.337572 -0.342590 -0.581240 -0.182690 18.202013 -10.421441 3.202122 2.596798 2.602993 -19.713504 8.374709 -3.634535 6.106111 0.059976 -2.267512 3.523535 -0.452490 0.289160 0.285830 -3.331858 -1.625865 -7.619309 5.729086 -1.604880 4.610311 1.221057 -1.919526 3.471963 2.856987 3.337434 -13.297017 4.605157 -1.313896 74.505654 -1.127340 2.827090 25.165120 -22.891145 -12.393177 7.202909 -62.789788 0.755648 -6.890896 -8.395416 -14.540217 -0.654254 -3.889702 2.870553 0.203220 0.181180 0.039560 0.020350 18.495081 10.420821 6.651228 64.289964 -2.280594 -11.896414 2.307167 19.561611 -0.937687 2.674133 -1.107652 -0.048520 -0.099630 0.214100 0.045190 
0.162290 17.469620 -0.915270 -2.567785 5.067620 5.538696 -15.323842 13.066264 3.078368 -0.702586 0.217525 -4.706355 -7.712803 4.793955 3.730317 0.244500 3.805034 3.334488 -0.352660 -0.593810 -0.188900 18.196357 -10.423918 3.202060 2.839283 2.624263 -19.764514 7.942021 -3.565995 6.157694 0.071135 -2.244651 3.532787 -0.462040 0.292990 0.288840 -3.312845 -1.629100 -7.611392 5.572075 -1.630315 4.589528 1.353752 -1.962957 3.490606 2.856387 3.340930 -13.292583 4.641717 -1.408745 74.450745 -1.429270 2.922690 25.692390 -22.804299 -12.344320 7.216988 -62.901284 0.793328 -6.947185 -8.503651 -14.573389 -0.639808 -3.894122 2.877813 0.192820 0.187380 0.033350 0.019820 18.438039 10.387650 6.630076 64.202552 -2.215301 -11.835377 2.601534 19.538519 -0.897399 2.681904 -1.115182 -0.045710 -0.108720 0.215400 0.048660 
0.163170 17.473440 -0.914980 -2.725136 5.089938 5.535810 -15.317023 13.065528 3.070360 -0.514962 0.200182 -4.723849 -7.738194 4.797844 3.686575 0.250207 3.814518 3.333739 -0.361320 -0.608900 -0.186820 18.204878 -10.418900 3.206839 3.022535 2.650946 -19.746614 7.776704 -3.529632 6.087902 0.076084 -2.235979 3.534505 -0.471940 0.293050 0.292110 -3.334991 -1.629186 -7.607823 5.853692 -1.656219 4.549632 1.356725 -1.990300 3.475408 2.924694 3.319747 -13.280871 4.579852 -1.462373 74.700334 -1.870930 3.157040 26.232230 -22.983926 -12.256350 7.171057 -62.985463 0.793682 -6.967951 -8.176883 -14.622699 -0.667593 -3.898624 2.877253 0.188310 0.191580 0.030210 0.016360 18.472503 10.299653 6.642158 64.121620 -2.334334 -11.938545 2.633872 19.788105 -0.906431 2.685248 -1.118999 -0.045520 -0.116570 0.216640 0.047360 
0.163570 17.474420 -0.915730 -2.709488 5.053662 5.554194 -15.326495 13.068744 3.076333 -0.607599 0.205024 -4.683706 -7.582601 4.737468 3.462594 0.250110 3.798839 3.341105 -0.363810 -0.614640 -0.181160 18.197909 -10.405558 3.202687 2.977041 2.636838 -19.710666 7.782078 -3.514689 5.965672 0.077078 -2.234103 3.534403 -0.475410 0.291050 0.289860 -3.310468 -1.660890 -7.606146 5.762370 -1.713259 4.517057 1.436197 -2.059819 3.447212 2.967823 3.352919 -13.282853 4.668610 -1.413998 75.031620 -1.977230 3.468280 26.588430 -23.163678 -12.212068 7.169211 -62.940326 0.926200 -6.997874 -7.674603 -14.538712 -0.710310 -3.897981 2.872544 0.188970 0.191880 0.029690 0.014410 18.595744 10.211425 6.617536 64.075813 -2.418772 -12.065388 2.488406 20.069765 -0.947091 2.686425 -1.119772 -0.048380 -0.119230 0.214180 0.044170 
